<?xml version="1.0" encoding="UTF-8"?>
<svg width="1200pt" height="1200pt" version="1.1" viewBox="0 0 1200 1200" xmlns="http://www.w3.org/2000/svg">
 <path d="m528.28 759.11c0-41.797 16.602-81.879 46.156-111.43 29.551-29.555 69.637-46.156 111.43-46.156 41.797 0 81.879 16.605 111.43 46.16 29.551 29.555 46.152 69.637 46.152 111.43-0.003906 41.793-16.609 81.875-46.164 111.43s-69.641 46.152-111.43 46.148c-41.793 0-81.875-16.602-111.43-46.156-29.551-29.551-46.148-69.633-46.145-111.43zm66.48-91.094c-24.164 24.16-37.734 56.93-37.734 91.098s13.57 66.938 37.734 91.098c24.16 24.16 56.93 37.734 91.098 37.734s66.938-13.574 91.098-37.734c24.16-24.16 37.734-56.93 37.734-91.098s-13.574-66.938-37.734-91.098c-24.16-24.164-56.93-37.738-91.098-37.738-34.172 0-66.941 13.574-91.098 37.738zm-42-42c-32.629 32.555-52.172 75.949-54.93 121.96-2.7617 46.008 11.461 91.426 39.961 127.64 28.504 36.219 69.305 60.723 114.67 68.859 45.363 8.1367 92.137-0.65625 131.45-24.711 2.75-1.6641 5.9766-2.3633 9.1641-1.9805 3.1914 0.37891 6.1641 1.8164 8.4414 4.0781l20.52 20.52c4.1016 4.0469 10.695 4.0469 14.797 0l32.242-32.242c4.0469-4.1016 4.0469-10.695 0-14.797l-20.496-20.543c-2.3867-2.3984-3.8555-5.5625-4.1484-8.9336-0.28906-3.375 0.62109-6.7422 2.5664-9.5117 23.754-39.359 32.277-86.051 23.965-131.26s-32.887-85.82-69.086-114.16-81.516-42.441-127.4-39.656c-45.887 2.7891-89.164 22.273-121.67 54.781zm363.6 363.67h-0.003906c-4.5195 4.5273-7.0547 10.668-7.043 17.066-0.019531 6.4062 2.5156 12.559 7.043 17.098l87.121 87.133h1.1992l33.023-33.023v-1.1992l-87.121-87.121c-4.5508-4.5273-10.711-7.0703-17.133-7.0703-6.4219 0-12.586 2.543-17.137 7.0703zm-50.68-35.496 15.254-15.254 23.578 23.578v0.003906c-6.0859 3.9688-11.273 9.1641-15.238 15.254zm-476.88-772.99h59.473c6.957-0.089844 12.57-5.7227 12.633-12.684v-59.449zm692.4 326.7h-850.27v494.1c0.003906 14.992-4.8086 29.59-13.73 41.641h678.32c-8.832-9.1055-14.082-21.09-14.797-33.758l-38.027-38.027c-6.9961 2.5039-14.559 2.9727-21.812 1.3477-7.25-1.6211-13.895-5.2695-19.156-10.516l-12.758-12.758 0.003906 0.003906c-45.828 24.766-99.043 32.207-149.91 20.969-50.863-11.238-95.988-40.41-127.11-82.184-31.129-41.77-46.18-93.348-42.41-145.3 3.7734-51.957 26.121-100.82 62.957-137.65 36.836-36.836 85.699-59.184 137.66-62.957 51.953-3.7734 103.54 11.281 145.3 42.406 41.77 31.129 70.941 76.25 82.184 127.12 11.238 50.867 3.793 104.08-20.973 149.91 12.457 12.457 24.215 21.191 24.215 40.477-0.003907 4.5-0.77734 8.9648-2.2891 13.199l38.039 38.039v0.003906c12.941 0.73438 25.164 6.207 34.332 15.371l74.102 74.102h-0.003906c9.8438-1.0078 18.969-5.6211 25.617-12.953 6.6445-7.332 10.344-16.863 10.383-26.758v-495.84zm-4.1641-28.801v-79.246c0-7.9062-6.4062-14.32-14.316-14.328l-50.797 0.10937 0.003906-284.26c-0.023437-10.988-4.4062-21.516-12.188-29.273-7.7812-7.7578-18.324-12.109-29.309-12.102h-495.23c-3.8555-0.003906-7.5469 1.543-10.246 4.2969l-120.96 121.01c-2.7031 2.6875-4.2188 6.3398-4.2109 10.152v114.94l-15-12.613c-2.7031-2.7695-6.4062-4.3281-10.273-4.3203h-210.01c-3.8203 0-7.4805 1.5156-10.184 4.2148-2.6992 2.7031-4.2148 6.3633-4.2148 10.184v695.89c0.042969 18.188 7.2891 35.621 20.152 48.484s30.297 20.109 48.484 20.152h765.53l58.957 58.957h-0.003906c5.5586 5.5391 13.082 8.6523 20.93 8.6523 7.8438 0 15.371-3.1133 20.926-8.6523l33.012-33.023h0.003906c3.8906-3.8906 6.6172-8.7891 7.8789-14.148 1.2617-5.3555 1.0039-10.957-0.74219-16.176 13.09-4.9141 24.371-13.695 32.348-25.18 7.9727-11.484 12.262-25.125 12.293-39.105v-510.21c0-3.8203-1.5156-7.4805-4.2188-10.184-2.6992-2.6992-6.3594-4.2148-10.18-4.2148zm-65.16 0v-64.832l36.422-0.070313v64.945zm-643.29 0 0.003906-269.28h79.703c10.957-0.023437 21.461-4.3906 29.203-12.145 7.7422-7.7539 12.094-18.262 12.102-29.219v-79.656h480.83c6.9531 0.039063 12.582 5.668 12.621 12.625v377.76zm-208.07 564.54h-1.7539 0.003907c-10.57-0.039063-20.695-4.2539-28.168-11.727-7.4766-7.4688-11.691-17.594-11.734-28.16v-681.54h190.51l30.395 25.559 0.003906 131.37h-123.22c-3.8164 0-7.4805 1.5156-10.18 4.2188-2.7031 2.6992-4.2188 6.3633-4.2188 10.18v508.46c-0.042968 11.035-4.4492 21.605-12.254 29.406-7.8047 7.8047-18.375 12.203-29.41 12.246zm306.28-728.84c-4.9141-0.32031-9.3242-3.125-11.695-7.4414-2.3672-4.3164-2.3672-9.543 0-13.859 2.3711-4.3164 6.7812-7.1211 11.695-7.4414h417.97c3.9727-0.25391 7.8711 1.1445 10.777 3.8672 2.9023 2.7227 4.5508 6.5234 4.5508 10.504s-1.6484 7.7852-4.5508 10.508c-2.9062 2.7188-6.8047 4.1211-10.777 3.8633zm0 86.605v-0.003906c-5.1445 0-9.8984-2.7422-12.473-7.1992-2.5703-4.4531-2.5703-9.9453 0-14.398 2.5742-4.457 7.3281-7.1992 12.473-7.1992h417.97c5.1445 0 9.8984 2.7422 12.469 7.1992 2.5742 4.4531 2.5742 9.9453 0 14.398-2.5703 4.457-7.3242 7.1992-12.469 7.1992z" fill="#82bcd7" fill-rule="evenodd"/>
</svg>
