<?xml version="1.0" encoding="UTF-8"?>
<svg width="1200pt" height="1200pt" version="1.1" viewBox="0 0 1200 1200" xmlns="http://www.w3.org/2000/svg">
 <path d="m188.09 419.7c32.273 0 58.539-26.262 58.539-58.539 0-32.273-26.262-58.539-58.539-58.539-32.273 0-58.539 26.262-58.539 58.539 0.003906 32.277 26.266 58.539 58.539 58.539zm0-80.586c12.164 0 22.051 9.8867 22.051 22.051 0 12.164-9.8867 22.051-22.051 22.051-12.164 0-22.051-9.8867-22.051-22.051 0.003906-12.164 9.9023-22.051 22.051-22.051zm0 319.43c32.273 0 58.539-26.262 58.539-58.539 0-32.273-26.262-58.539-58.539-58.539-32.273 0-58.523 26.266-58.523 58.539s26.25 58.539 58.523 58.539zm0-80.59c12.164 0 22.051 9.8867 22.051 22.051s-9.8867 22.051-22.051 22.051c-12.16 0-22.047-9.8867-22.047-22.051s9.8984-22.051 22.047-22.051zm0 202.35c-32.273 0-58.539 26.262-58.539 58.539 0 32.273 26.262 58.539 58.539 58.539 32.273 0 58.539-26.262 58.539-58.539s-26.25-58.539-58.539-58.539zm0 80.586c-12.164 0-22.051-9.8867-22.051-22.051 0-12.164 9.8867-22.051 22.051-22.051 12.164 0 22.051 9.8867 22.051 22.051 0 12.164-9.8867 22.051-22.051 22.051zm977.4-235.71c0-114.24-78.449-210.51-184.3-237.76v-145.66c0-10.074-8.1641-18.238-18.238-18.238h-910.2c-10.074 0-18.238 8.1641-18.238 18.238v716.5c0 10.074 8.1641 18.238 18.238 18.238h910.19c10.074 0 18.238-8.1641 18.238-18.238v-95.324c105.86-27.25 184.31-123.51 184.31-237.75zm-220.79-365.19v120.95c-8.125-0.8125-16.352-1.2383-24.688-1.2383-72.926 0-138.52 31.988-183.52 82.637h-665.49v-202.35zm-235.06 238.84c-22.262 36.938-35.086 80.164-35.086 126.35 0 26.512 4.2383 52.062 12.062 76h-615.61v-202.35zm235.06 441.19h-873.7v-202.35h630.88c40.863 78.926 123.3 132.99 218.14 132.99 8.3359 0 16.562-0.42578 24.688-1.2383zm-24.688-105.85c-115.24 0-208.99-93.75-208.99-208.99s93.75-208.99 208.99-208.99 208.99 93.75 208.99 208.99-93.75 208.99-208.99 208.99zm142.25-152.85c-2.8359 7.1641-9.6992 11.539-16.961 11.539-2.2383 0-4.5-0.41406-6.7109-1.2891-9.3633-3.6992-13.961-14.301-10.25-23.676 6.9375-17.539 9.4492-36.012 7.4609-54.914-6.7266-63.836-64.148-110.32-127.98-103.6-8.6367 0.91406-17.062 2.7617-25.148 5.4883l5.5508 0.94922c9.9258 1.7109 16.586 11.148 14.875 21.074-1.5234 8.875-9.2383 15.148-17.949 15.148-1.0234 0-2.0742-0.085938-3.125-0.26172l-55.523-9.5625c-5.5234-0.94922-10.312-4.3867-12.961-9.3242-2.6641-4.9375-2.8984-10.824-0.64844-15.961l22.602-51.625c4.0391-9.2266 14.801-13.438 24.023-9.3984 9.2266 4.0391 13.438 14.801 9.3984 24.023l-0.59375 1.3281c11.438-4.1016 23.387-6.8633 35.688-8.1484 83.824-8.8242 159.25 52.211 168.07 136.06 2.5781 24.461-0.82422 49.41-9.8242 72.148zm-35.762 35.012c2.6641 4.9375 2.8984 10.824 0.64844 15.961l-22.602 51.625c-3 6.8516-9.6875 10.926-16.711 10.926-2.4375 0-4.9258-0.5-7.3008-1.5391-9.2266-4.0391-13.426-14.773-9.3984-24-11.262 3.9883-23.012 6.6758-35.102 7.9492-5.4492 0.57422-10.887 0.86328-16.301 0.86328-34.875 0-68.438-11.824-95.926-34.074-31.75-25.699-51.586-62.227-55.863-102.84-2.6484-25.137 1-50.711 10.551-73.977 3.8242-9.3242 14.477-13.773 23.801-9.9492 9.3242 3.8242 13.773 14.488 9.9492 23.801-7.2617 17.688-10.039 37.148-8.0117 56.301 6.7266 63.836 64.113 110.31 127.98 103.6 9.3984-0.98828 18.551-3.1133 27.289-6.25l-7.6875-1.3242c-9.9258-1.7109-16.586-11.148-14.875-21.074s11.137-16.586 21.074-14.875l55.523 9.5625c5.5273 0.93359 10.301 4.3711 12.965 9.3086zm-717.21-309.9h308.82c10.074 0 18.238-8.1641 18.238-18.238v-54.039c0-10.074-8.1641-18.238-18.238-18.238l-308.82 0.003906c-10.074 0-18.238 8.1641-18.238 18.238v54.039c0 10.07 8.1602 18.234 18.238 18.234zm18.234-54.039h272.34v17.562h-272.34zm-18.234 292.88h308.82c10.074 0 18.238-8.1641 18.238-18.238v-54.039c0-10.074-8.1641-18.238-18.238-18.238l-308.82 0.003906c-10.074 0-18.238 8.1641-18.238 18.238v54.039c0 10.074 8.1602 18.234 18.238 18.234zm18.234-54.035h272.34v17.562h-272.34zm290.58 202.35h-308.81c-10.074 0-18.238 8.1641-18.238 18.238v54.039c0 10.074 8.1641 18.238 18.238 18.238h308.82c10.074 0 18.238-8.1641 18.238-18.238v-54.039c0-10.074-8.1758-18.238-18.25-18.238zm-18.238 54.039h-272.34v-17.562h272.34z" fill="#82bcd7"/>
</svg>
