<?xml version="1.0" encoding="UTF-8"?>
<svg width="1200pt" height="1200pt" version="1.1" viewBox="0 0 1200 1200" xmlns="http://www.w3.org/2000/svg">
 <g fill="#82bcd7">
  <path d="m1111.8 195.88h-112.94v-81.176c0-52.941-42.352-95.293-95.293-95.293s-95.293 42.352-95.293 95.293v81.176h-416.47v-81.176c0-52.941-42.352-95.293-95.293-95.293s-95.293 42.352-95.293 95.293v81.176h-112.95c-38.824 0-70.59 31.766-70.59 68.824v843.53c0 38.824 31.766 70.59 70.59 70.59h1027.1c37.059 0 67.059-30 67.059-67.059v-847.06c0-37.062-31.762-68.828-70.586-68.828zm-208.23-141.18c33.531 0 60 26.469 60 60v150h-118.23v-49.41l-0.003906-100.59c-1.7617-33.531 26.473-60 58.238-60zm-607.06 0c33.531 0 60 26.469 60 60v150h-118.23v-150c-1.7656-33.531 24.707-60 58.234-60zm-208.23 176.47h112.94v51.176c0 10.59 7.0586 17.648 17.648 17.648h153.53c10.59 0 17.648-7.0586 17.648-17.648v-49.41h418.23l-0.003906 49.41c0 10.59 7.0586 17.648 17.648 17.648h153.53c10.59 0 17.648-7.0586 17.648-17.648v-49.41h114.7c19.41 0 35.293 15.883 35.293 33.531v104.12h-1094.1v-104.12c0-19.414 15.883-35.297 35.293-35.297zm1027.1 914.12h-1027.1c-19.41 0-35.293-15.883-35.293-35.293v-704.12h1094.1v705.88c0 19.41-14.117 33.527-31.766 33.527z"/>
  <path d="m674.12 647.65h141.18c10.59 0 17.648-7.0586 17.648-17.648v-139.41c0-10.59-7.0586-17.648-17.648-17.648h-141.18c-10.59 0-17.648 7.0586-17.648 17.648v139.41c0 8.8242 7.0625 17.648 17.648 17.648zm17.648-141.18h105.88v104.12h-105.88z"/>
  <path d="m1064.1 471.18h-141.18c-10.59 0-17.648 7.0586-17.648 17.648v139.41c0 10.59 7.0586 17.648 17.648 17.648h141.18c10.59 0 17.648-7.0586 17.648-17.648v-139.41c0-8.8242-7.0586-17.648-17.648-17.648zm-17.648 141.18h-105.88v-104.12h105.88z"/>
  <path d="m674.12 870h141.18c10.59 0 17.648-7.0586 17.648-17.648v-139.41c0-10.59-7.0586-17.648-17.648-17.648h-141.18c-10.59 0-17.648 7.0586-17.648 17.648v139.41c0 10.59 7.0625 17.648 17.648 17.648zm17.648-139.41h105.88v104.12h-105.88z"/>
  <path d="m1064.1 695.29h-141.18c-10.59 0-17.648 7.0586-17.648 17.648v139.41c0 10.59 7.0586 17.648 17.648 17.648h141.18c10.59 0 17.648-7.0586 17.648-17.648v-139.41c0-10.59-7.0586-17.648-17.648-17.648zm-17.648 139.41h-105.88v-104.12h105.88z"/>
  <path d="m1064.1 917.65h-141.18c-10.59 0-17.648 7.0586-17.648 17.648v141.17c0 10.59 7.0586 17.648 17.648 17.648h141.18c10.59 0 17.648-7.0586 17.648-17.648v-141.18c0-8.8242-7.0586-17.645-17.648-17.645zm-17.648 141.18h-105.88l0.003906-105.88h105.88z"/>
  <path d="m298.23 870c10.59 0 17.648-7.0586 17.648-17.648v-139.41c0-10.59-7.0586-17.648-17.648-17.648h-141.18c-10.59 0-17.648 7.0586-17.648 17.648v139.41c0 10.59 7.0586 17.648 17.648 17.648zm-125.29-139.41h105.88v104.12h-105.88z"/>
  <path d="m550.59 870c10.59 0 17.648-7.0586 17.648-17.648v-139.41c0-10.59-7.0586-17.648-17.648-17.648h-141.18c-10.59 0-17.648 7.0586-17.648 17.648v139.41c0 10.59 7.0586 17.648 17.648 17.648zm-123.53-139.41h105.88v104.12h-105.88z"/>
  <path d="m301.77 922.94h-141.18c-10.59 0-17.648 7.0586-17.648 17.648v139.41c0 10.59 7.0586 17.648 17.648 17.648h141.18c10.59 0 17.648-7.0586 17.648-17.648v-139.41c-0.003906-10.59-7.0625-17.648-17.648-17.648zm-17.648 139.41h-105.88v-104.12h105.88z"/>
  <path d="m555.88 922.94h-141.18c-10.59 0-17.648 7.0586-17.648 17.648v139.41c0 10.59 7.0586 17.648 17.648 17.648h141.18c10.59 0 17.648-7.0586 17.648-17.648v-139.41c0-10.59-7.0625-17.648-17.648-17.648zm-17.648 139.41h-105.88v-104.12h105.88z"/>
  <path d="m561.18 481.77-107.65 104.12-35.293-56.473c-5.293-8.8242-15.883-10.59-24.707-5.293-8.8242 5.293-10.59 15.883-5.293 24.707l47.648 75.883c3.5312 5.293 7.0586 7.0586 12.352 8.8242h1.7656c5.293 0 8.8242-1.7656 12.352-5.293l123.53-118.23c7.0586-7.0586 7.0586-17.648 0-24.707-5.293-8.8281-17.648-10.59-24.707-3.5312z"/>
  <path d="m817.06 938.82-107.65 102.35-37.059-58.234c-5.293-8.8242-15.883-10.59-24.707-5.293-8.8242 5.293-10.59 15.883-5.293 24.707l47.648 75.883c3.5312 5.293 7.0586 7.0586 12.352 8.8242h1.7656c5.293 0 8.8242-1.7656 12.352-5.293l123.53-118.23c7.0586-7.0586 7.0586-17.648 0-24.707-3.5312-7.0625-15.883-7.0625-22.941-0.003906z"/>
  <path d="m296.47 176.47c10.59 0 17.648-7.0586 17.648-17.648v-51.172c0-10.59-7.0586-17.648-17.648-17.648s-17.648 7.0586-17.648 17.648l0.003907 51.176c0 10.586 7.0586 17.645 17.645 17.645z"/>
  <path d="m903.53 176.47c10.59 0 17.648-7.0586 17.648-17.648l-0.003907-51.172c0-10.59-7.0586-17.648-17.648-17.648s-17.648 7.0586-17.648 17.648l0.003906 51.176c0 10.586 8.8242 17.645 17.648 17.645z"/>
 </g>
</svg>
