<?xml version="1.0" encoding="UTF-8"?>
<svg width="1200pt" height="1200pt" version="1.1" viewBox="0 0 1200 1200" xmlns="http://www.w3.org/2000/svg">
 <g fill="#82bcd7">
  <path d="m1080 138h-960c-52.934 0-96 43.066-96 96v732c0 52.934 43.066 96 96 96h960c52.934 0 96-43.066 96-96v-732c0-52.934-43.066-96-96-96zm-960 24h960c39.707 0 72 32.293 72 72v91.992h-1104v-91.992c0-39.707 32.293-72 72-72zm960 876h-960c-39.707 0-72-32.293-72-72v-616.01h1104v616.01c0 39.707-32.293 72-72 72z"/>
  <path d="m996 228h54v24h-54z"/>
  <path d="m852 228h54v24h-54z"/>
  <path d="m600 575.18c-65.508 0-118.81 53.293-118.81 118.8 0 65.52 53.305 118.82 118.81 118.82 65.52 0 118.81-53.305 118.81-118.82 0-65.508-53.293-118.8-118.81-118.8zm0 213.62c-52.285 0-94.812-42.539-94.812-94.824 0-52.273 42.527-94.801 94.812-94.801 52.273 0 94.812 42.527 94.812 94.801 0 52.285-42.539 94.824-94.812 94.824z"/>
  <path d="m841.14 665.93-2.4727-14.074c-6.1914-35.172-19.668-67.766-40.078-96.863l-8.207-11.699-45.289 45.301-39.707-39.672 45.301-45.301-11.699-8.207c-29.113-20.41-61.703-33.898-96.863-40.066l-14.074-2.4727v64.008h-56.113v-64.008l-14.074 2.4727c-35.172 6.168-67.766 19.656-96.875 40.066l-11.699 8.207 45.301 45.301-39.684 39.672-45.301-45.301-8.207 11.699c-20.41 29.113-33.887 61.703-40.055 96.863l-2.4727 14.074h63.996v56.113h-63.996l2.4727 14.074c6.168 35.195 19.656 67.789 40.066 96.898l8.207 11.699 45.301-45.301 39.672 39.66-45.301 45.301 11.699 8.207c29.102 20.426 61.703 33.91 96.875 40.094l14.074 2.4609v-63.996h56.113v63.996l14.074-2.4609c35.184-6.1797 67.766-19.668 96.863-40.094l11.699-8.207-45.301-45.301 39.684-39.66 45.324 45.312 8.207-11.711c20.387-29.113 33.875-61.715 40.066-96.898l2.4727-14.074-64.02-0.003907v-56.113zm-29.066 80.109c-5.2578 21.684-13.738 42.168-25.262 61.164l-41.746-41.734-73.621 73.598 41.734 41.734c-18.984 11.555-39.445 20.016-61.129 25.285v-58.957h-104.11v58.957c-21.684-5.2695-42.156-13.738-61.141-25.285l41.734-41.734-73.609-73.598-41.723 41.734c-11.543-18.996-20.004-39.48-25.273-61.164h58.957v-104.11h-58.957c5.2578-21.672 13.727-42.133 25.262-61.129l41.723 41.723 73.621-73.609-41.723-41.734c18.996-11.543 39.469-20.004 61.141-25.273v58.969h104.11l0.003906-58.949c21.672 5.2578 42.145 13.727 61.129 25.273l-41.734 41.734 73.645 73.609 41.723-41.723c11.543 18.996 20.004 39.457 25.262 61.129l-58.969-0.003906v104.11l58.953-0.003907z"/>
 </g>
</svg>
