<?xml version="1.0" encoding="UTF-8"?>
<svg width="1200pt" height="1200pt" version="1.1" viewBox="0 0 1200 1200" xmlns="http://www.w3.org/2000/svg">
 <g fill="#82bcd7">
  <path d="m1172.8 1120h-1146.9c-7.4648 0-13.332-5.8672-13.332-13.332v-1012.3c0-7.4648 5.8672-13.332 13.332-13.332h1146.9c7.4648 0 13.332 5.8672 13.332 13.332v1012.3c0 7.4648-5.8672 13.332-13.332 13.332zm-1133.6-26.668h1120.3v-985.6h-1120.3z"/>
  <path d="m1172.8 303.73h-1146.9c-7.4648 0-13.332-5.8672-13.332-13.332s5.8672-13.332 13.332-13.332h1146.9c7.4648 0 13.332 5.8672 13.332 13.332s-5.8672 13.332-13.332 13.332z"/>
  <path d="m1040.8 240.27h-62.398c-17.867 0-32.535-14.668-32.535-32.535v-30.398c0-17.867 14.668-32.535 32.535-32.535h62.398c17.867 0 32.535 14.668 32.535 32.535v30.398c-0.003907 17.871-14.402 32.535-32.535 32.535zm-62.402-68.801c-3.1992 0-5.8672 2.668-5.8672 5.8672v30.398c0 3.1992 2.668 5.8672 5.8672 5.8672h62.398c3.1992 0 5.8672-2.668 5.8672-5.8672l0.003907-30.398c0-3.1992-2.668-5.8672-5.8672-5.8672z"/>
  <path d="m861.6 240.27h-62.398c-17.867 0-32.535-14.668-32.535-32.535v-30.398c0-17.867 14.668-32.535 32.535-32.535h62.398c17.867 0 32.535 14.668 32.535 32.535v30.398c-0.003907 17.871-14.402 32.535-32.535 32.535zm-62.402-68.801c-3.1992 0-5.8672 2.668-5.8672 5.8672v30.398c0 3.1992 2.668 5.8672 5.8672 5.8672h62.398c3.1992 0 5.8672-2.668 5.8672-5.8672v-30.398c0-3.1992-2.668-5.8672-5.8672-5.8672z"/>
  <path d="m682.4 240.27h-62.398c-17.867 0-32.535-14.668-32.535-32.535v-30.398c0-17.867 14.668-32.535 32.535-32.535h62.398c17.867 0 32.535 14.668 32.535 32.535v30.398c0 17.871-14.668 32.535-32.535 32.535zm-62.398-68.801c-3.1992 0-5.8672 2.668-5.8672 5.8672v30.398c0 3.1992 2.668 5.8672 5.8672 5.8672h62.398c3.1992 0 5.8672-2.668 5.8672-5.8672v-30.398c0-3.1992-2.668-5.8672-5.8672-5.8672z"/>
  <path d="m321.87 540.8h-115.2c-22.398 0-40.535-18.133-40.535-40.535v-115.2c0-22.398 18.133-40.535 40.535-40.535h115.2c22.398 0 40.535 18.133 40.535 40.535v115.2c-0.003906 22.133-18.402 40.535-40.535 40.535zm-115.2-169.6c-7.7344 0-13.867 6.1328-13.867 13.867v115.2c0 7.7344 6.1328 13.867 13.867 13.867h115.2c7.7344 0 13.867-6.1328 13.867-13.867v-115.2c0-7.7344-6.1328-13.867-13.867-13.867z"/>
  <path d="m1019.5 411.2h-573.07c-7.4648 0-13.332-5.8672-13.332-13.332 0-7.4648 5.8672-13.332 13.332-13.332h573.07c7.4648 0 13.332 5.8672 13.332 13.332 0.003906 7.4648-6.1289 13.332-13.332 13.332z"/>
  <path d="m884 500.8h-437.6c-7.4648 0-13.332-5.8672-13.332-13.332s5.8672-13.332 13.332-13.332h437.6c7.4648 0 13.332 5.8672 13.332 13.332s-5.8672 13.332-13.332 13.332z"/>
  <path d="m321.87 796.8h-115.2c-22.398 0-40.535-18.133-40.535-40.535v-115.2c0-22.398 18.133-40.535 40.535-40.535h115.2c22.398 0 40.535 18.133 40.535 40.535v115.2c-0.003906 22.133-18.402 40.535-40.535 40.535zm-115.2-169.6c-7.7344 0-13.867 6.1328-13.867 13.867v115.2c0 7.7344 6.1328 13.867 13.867 13.867h115.2c7.7344 0 13.867-6.1328 13.867-13.867v-115.2c0-7.7344-6.1328-13.867-13.867-13.867z"/>
  <path d="m1019.5 667.2h-573.07c-7.4648 0-13.332-5.8672-13.332-13.332 0-7.4648 5.8672-13.332 13.332-13.332h573.07c7.4648 0 13.332 5.8672 13.332 13.332 0.003906 7.4648-6.1289 13.332-13.332 13.332z"/>
  <path d="m884 756.8h-437.6c-7.4648 0-13.332-5.8672-13.332-13.332s5.8672-13.332 13.332-13.332h437.6c7.4648 0 13.332 5.8672 13.332 13.332s-5.8672 13.332-13.332 13.332z"/>
  <path d="m321.87 1052.8h-115.2c-22.398 0-40.535-18.133-40.535-40.535v-115.2c0-22.398 18.133-40.535 40.535-40.535h115.2c22.398 0 40.535 18.133 40.535 40.535v115.2c-0.003906 22.133-18.402 40.535-40.535 40.535zm-115.2-169.6c-7.7344 0-13.867 6.1328-13.867 13.867v115.2c0 7.7344 6.1328 13.867 13.867 13.867h115.2c7.7344 0 13.867-6.1328 13.867-13.867v-115.2c0-7.7344-6.1328-13.867-13.867-13.867z"/>
  <path d="m1019.5 923.2h-573.07c-7.4648 0-13.332-5.8672-13.332-13.332 0-7.4648 5.8672-13.332 13.332-13.332h573.07c7.4648 0 13.332 5.8672 13.332 13.332 0.003906 7.4648-6.1289 13.332-13.332 13.332z"/>
  <path d="m884 1012.8h-437.6c-7.4648 0-13.332-5.8672-13.332-13.332s5.8672-13.332 13.332-13.332h437.6c7.4648 0 13.332 5.8672 13.332 13.332s-5.8672 13.332-13.332 13.332z"/>
  <path d="m240.8 486.4h-1.6016c-4-0.53516-7.4648-2.9336-9.6016-6.1328l-16.801-27.465c-3.7344-6.3984-1.8672-14.398 4.2656-18.398 6.3984-3.7344 14.398-1.8672 18.398 4.2656l8.2656 13.332 51.734-49.332c5.332-5.0664 13.867-4.8008 18.934 0.53516 5.0664 5.332 4.8008 13.867-0.53516 18.934l-63.992 60.531c-2.4023 2.3984-5.6016 3.7305-9.0664 3.7305z"/>
  <path d="m240.8 998.4h-1.6016c-4-0.53516-7.4648-2.9336-9.6016-6.1328l-16.801-27.465c-3.7344-6.3984-1.8672-14.398 4.2656-18.398 6.3984-3.7344 14.398-1.8672 18.398 4.2656l8.2656 13.332 51.734-49.332c5.332-5.0664 13.867-4.8008 18.934 0.53516 5.0664 5.332 4.8008 13.867-0.53516 18.934l-63.992 60.531c-2.4023 2.3984-5.6016 3.7305-9.0664 3.7305z"/>
  <path d="m292.8 740.54c-3.4648 0-6.9336-1.332-9.332-4l-57.332-57.332c-5.332-5.332-5.332-13.602 0-18.934s13.602-5.332 18.934 0l57.332 57.332c5.332 5.332 5.332 13.602 0 18.934-2.668 2.6641-6.1367 4-9.6016 4z"/>
  <path d="m235.46 740.54c-3.4648 0-6.9336-1.332-9.332-4-5.332-5.332-5.332-13.602 0-18.934l57.332-57.332c5.332-5.332 13.602-5.332 18.934 0 5.332 5.332 5.332 13.602 0 18.934l-57.332 57.332c-2.668 2.6641-6.1328 4-9.6016 4z"/>
 </g>
</svg>
